<?xml version="1.0"?>
<svg xmlns="http://www.w3.org/2000/svg" xmlns:xlink="http://www.w3.org/1999/xlink" xmlns:svgjs="http://svgjs.com/svgjs" version="1.1" width="512" height="512" x="0" y="0" viewBox="0 0 512 512" style="enable-background:new 0 0 512 512" xml:space="preserve" class=""><g><path xmlns="http://www.w3.org/2000/svg" d="M24,496H432a8.00063,8.00063,0,0,0,7.90723-6.78369L449.94067,424H488a8.00008,8.00008,0,0,0,8-8V384a8.00008,8.00008,0,0,0-8-8H457.3252l13.53833-88H488a8.00008,8.00008,0,0,0,8-8V232a8.00008,8.00008,0,0,0-8-8H472v-5.166a55.67287,55.67287,0,0,0-26.89355-47.5l-5.7334-3.43994a55.40812,55.40812,0,0,0-28.5-7.894h-19.0752a39.64472,39.64472,0,0,1-23.63867-7.88037l-.53223-.39893a55.69787,55.69787,0,0,0-48.4541-8.94775l-23.09668,6.59961a39.6608,39.6608,0,0,1-17.2998.98l-9.041-1.50684A55.20845,55.20845,0,0,0,216.31348,170.249,39.60221,39.60221,0,0,1,202.415,181.84814l-33.313,16.65656L130.6438,166.45624,140.28125,152H176a8.00008,8.00008,0,0,0,8-8V112h72a8.00008,8.00008,0,0,0,8-8V96h32a8.00076,8.00076,0,0,0,5.65723-2.34326l16-16A8.00035,8.00035,0,0,0,320,72V56a8.00035,8.00035,0,0,0-2.34277-5.65674l-16-16A8.00076,8.00076,0,0,0,296,32H264V24a8.00008,8.00008,0,0,0-8-8H112a7.99883,7.99883,0,0,0-4.11621,1.14014l-80,48A8.00072,8.00072,0,0,0,24,72v32a8.00008,8.00008,0,0,0,8,8H56v53.4364L17.49023,219.3501A8.003,8.003,0,0,0,16,224V488A8.00008,8.00008,0,0,0,24,496Zm8-16V432H208v48Zm0-176H208V416H32ZM425.13672,480H224V288h60.686L391.03027,394.34375A46.27907,46.27907,0,0,0,416,407.3064V416a8.00008,8.00008,0,0,0,8,8h9.752ZM480,408H432V392h48Zm-38.86353-32H424a8.00008,8.00008,0,0,0-8,8v6.94165a30.44192,30.44192,0,0,1-13.65625-7.91186L307.314,288H454.6748ZM480,272H291.314l-21.65673-21.65674a8.00018,8.00018,0,0,0-11.31446,11.31348L268.686,272H224V248a8.00036,8.00036,0,0,0-2.87891-6.146L218.89624,240H480ZM209.57129,196.15869a55.679,55.679,0,0,0,19.542-16.30957,39.26553,39.26553,0,0,1,37.99121-15.22119l9.042,1.50684a55.73613,55.73613,0,0,0,24.3252-1.37745l23.09668-6.59961A39.61536,39.61536,0,0,1,358.0293,164.522l.53222.39893A55.74228,55.74228,0,0,0,391.79785,176h19.0752a39.4051,39.4051,0,0,1,20.26757,5.61377l5.7334,3.43994A39.59231,39.59231,0,0,1,456,218.834V224H199.69629l-17.17774-14.31488ZM168,136H144V112h24ZM292.68652,48,304,59.31348v9.373L292.68652,80H264V48ZM40,76.5293,114.21582,32H248V96H40ZM128,112v29.57764L115.71875,160H72V112ZM68.1167,176h48.98706L208,251.74707V288H32V226.56348Z" fill="#ffffff" data-original="#000000" style="" class=""/><rect xmlns="http://www.w3.org/2000/svg" x="224" y="200" width="16" height="16" fill="#ffffff" data-original="#000000" style="" class=""/><rect xmlns="http://www.w3.org/2000/svg" x="256" y="184" width="16" height="16" fill="#ffffff" data-original="#000000" style="" class=""/><rect xmlns="http://www.w3.org/2000/svg" x="304" y="184" width="16" height="16" fill="#ffffff" data-original="#000000" style="" class=""/><rect xmlns="http://www.w3.org/2000/svg" x="344" y="176" width="16" height="16" fill="#ffffff" data-original="#000000" style="" class=""/><rect xmlns="http://www.w3.org/2000/svg" x="360" y="200" width="16" height="16" fill="#ffffff" data-original="#000000" style="" class=""/><rect xmlns="http://www.w3.org/2000/svg" x="400" y="184" width="16" height="16" fill="#ffffff" stroke="#ffffff" stroke-width="50" data-original="#000000" style="" class=""/></g></svg>
