<?xml version="1.0" ?><svg style="enable-background:new 0 0 48 48;" version="1.1" viewBox="0 0 48 48" xml:space="preserve" xmlns="http://www.w3.org/2000/svg" xmlns:xlink="http://www.w3.org/1999/xlink"><g id="Padding__x26__Artboard"/><g id="Icons"><g><path d="M12.70612,22.30963c0,0.85608,0,1.70428,0,2.56189c0.1438,0,0.27948,0.0072,0.41418-0.00153    c0.29968-0.01941,0.5824-0.09058,0.81561-0.29749c0.5354-0.47522,0.56567-1.3775,0.06537-1.89337    C13.6402,22.30658,13.17981,22.29858,12.70612,22.30963z" style="fill:#303030;"/><path d="M35.216,22.8255c-0.00238-0.20898-0.08173-0.37598-0.27338-0.47382    c-0.21564-0.11005-0.44775-0.09509-0.68231-0.08685c0,0.39276,0,0.77728,0,1.1723c0.23846,0.00018,0.47406,0.01526,0.68951-0.104    C35.14819,23.22308,35.21851,23.04242,35.216,22.8255z" style="fill:#303030;"/><path d="M36.73413,14.05713H11.26538c-1.32666,0-2.40625,1.07959-2.40625,2.40674v15.07227    c0,1.32715,1.07959,2.40674,2.40625,2.40674h25.46875c1.32715,0,2.40674-1.07959,2.40674-2.40674V16.46387    C39.14087,15.13672,38.06128,14.05713,36.73413,14.05713z M38.1095,25.67053c0.0636-0.04041,0.12732-0.0816,0.19232-0.12384    l0.00519-0.00336c0.02722-0.0177,0.05609-0.03656,0.08386-0.05469v6.04749c0,0.91357-0.74316,1.65674-1.65674,1.65674H17.63434    c0.00983-0.00201,0.01971-0.0036,0.02954-0.00568c1.08984-0.22827,2.18152-0.45007,3.26514-0.70538    c2.10248-0.49548,4.17566-1.09552,6.22168-1.78998c2.66553-0.90472,5.2663-1.96362,7.77924-3.2348    C36.01581,26.90771,37.08142,26.32251,38.1095,25.67053z M33.4989,21.6507c0.01453-0.00348,0.02301-0.00726,0.03149-0.0072    c0.4306,0.00299,0.86151-0.0011,1.29169,0.01361c0.15082,0.00519,0.30493,0.0415,0.4494,0.08881    c0.49042,0.16052,0.76294,0.58209,0.73041,1.09851c-0.01849,0.29468-0.0932,0.56299-0.31458,0.77429    c-0.13654,0.13019-0.30042,0.20819-0.47919,0.2597c-0.02594,0.00739-0.05194,0.01422-0.08923,0.02441    c0.40643,0.5437,0.80841,1.0816,1.22308,1.63635c-0.18536,0-0.34967,0-0.51385,0c-0.1145,0-0.22913-0.00378-0.34332,0.0014    c-0.06256,0.00293-0.09711-0.02075-0.13068-0.07129c-0.31683-0.4762-0.63672-0.95032-0.95441-1.42596    c-0.03241-0.04852-0.06262-0.0899-0.1402-0.0589c0,0.51038,0,1.02649,0,1.54858c-0.25922,0-0.50732,0-0.76062,0    C33.4989,24.23883,33.4989,22.94781,33.4989,21.6507z M30.8465,21.64709c0.71533,0,1.4248,0,2.14148,0    c0,0.21924,0,0.43414,0,0.65704c-0.45758,0-0.91425,0-1.37817,0c0,0.28876,0,0.5697,0,0.86108c0.44067,0,0.87891,0,1.32391,0    c0,0.22491,0,0.43939,0,0.66278c-0.44214,0-0.88043,0-1.32483,0c0,0.35089,0,0.69293,0,1.04602c0.46039,0,0.91919,0,1.38184,0    c0,0.224,0,0.43677,0,0.65741c-0.7149,0-1.42633,0-2.14423,0C30.8465,24.23969,30.8465,22.94904,30.8465,21.64709z     M27.547,21.64642c0.02411,0.00049,0.0567,0.0462,0.06927,0.07739c0.26855,0.67059,0.53455,1.34241,0.80133,2.01379    c0.06549,0.16492,0.13171,0.32959,0.20392,0.51019c0.01837-0.04102,0.0321-0.06891,0.0437-0.09747    c0.32581-0.81,0.65186-1.61981,0.97589-2.4303c0.02179-0.05444,0.04596-0.08032,0.10986-0.0791    c0.24384,0.00415,0.48773,0.00171,0.74585,0.00171c-0.01471,0.0387-0.02515,0.06848-0.03735,0.09747    c-0.53625,1.27338-1.07318,2.54639-1.60748,3.8205c-0.02539,0.06061-0.05627,0.08142-0.11951,0.0777    c-0.0871-0.00507-0.17517,0.00342-0.2619-0.00372c-0.0307-0.0025-0.07507-0.02728-0.08575-0.05328    c-0.54034-1.29779-1.07751-2.59686-1.61481-3.896c-0.00323-0.00781-0.00262-0.01727-0.00592-0.04242    C27.03027,21.64288,27.2887,21.64069,27.547,21.64642z M24.8338,21.58221c1.16803-0.00702,2.07922,0.91071,2.06061,2.01178    c0.01868,1.11462-0.89868,2.02454-2.06152,2.02283c-1.17047-0.00171-2.0694-0.87323-2.06268-2.04639    C22.77661,22.46252,23.68719,21.58929,24.8338,21.58221z M21.10162,21.60254c0.45319-0.09766,0.89301-0.04901,1.30945,0.16315    c0.02704,0.01379,0.06232,0.047,0.06274,0.07184c0.00439,0.27637,0.00281,0.5531,0.00281,0.83997    c-0.12231-0.09155-0.22681-0.1839-0.34412-0.25531c-0.45251-0.27545-1.03387-0.21106-1.44208,0.15222    c-0.60931,0.54248-0.58105,1.6012,0.05579,2.09161c0.47742,0.36768,1.14307,0.34888,1.59882-0.04541    c0.03827-0.03308,0.07629-0.06659,0.13177-0.11487c0,0.05817,0,0.09839,0,0.13879c-0.00012,0.229-0.00128,0.45801,0.00098,0.68707    c0.00055,0.04871-0.01459,0.07428-0.05988,0.09601c-0.92981,0.44373-2.06927,0.14111-2.62268-0.71417    C19.03131,23.53284,19.63568,21.91888,21.10162,21.60254z M18.43469,24.28918c-0.03119-0.1413-0.11322-0.24896-0.23938-0.31219    c-0.14221-0.07111-0.2923-0.12659-0.43903-0.18866c-0.15778-0.06671-0.31946-0.12561-0.47266-0.20172    c-0.4906-0.24377-0.64093-0.66937-0.5011-1.20007c0.11688-0.44385,0.52228-0.75452,1.0235-0.79895    c0.47217-0.04199,0.89246,0.09399,1.25818,0.39661c0.00909,0.00745,0.01617,0.01733,0.0307,0.03302    c-0.13422,0.17517-0.26349,0.34399-0.396,0.51691c-0.14551-0.15509-0.29919-0.28009-0.508-0.3067    c-0.20905-0.02649-0.4046,0.00757-0.55994,0.16296c-0.16748,0.1676-0.14795,0.41785,0.05243,0.54211    c0.13428,0.08319,0.28638,0.138,0.43042,0.20551c0.22009,0.10352,0.44769,0.19373,0.65857,0.3136    c0.30481,0.17334,0.4422,0.45374,0.45612,0.80164c0.01831,0.46039-0.12103,0.84998-0.50269,1.1283    c-0.28802,0.20996-0.61914,0.26868-0.96863,0.24817c-0.53198-0.03107-0.92273-0.29541-1.20538-0.71899    c0.15668-0.1676,0.30988-0.33142,0.45715-0.48889c0.09534,0.10992,0.17096,0.2207,0.26892,0.30542    c0.21881,0.18915,0.479,0.25098,0.76001,0.18115C18.3233,24.83759,18.49469,24.56061,18.43469,24.28918z M15.50024,21.65002    c0.24927,0,0.49677,0,0.75037,0c0,1.29297,0,2.58368,0,3.88428c-0.25281,0-0.49854,0-0.75037,0    C15.50024,24.23871,15.50024,22.94812,15.50024,21.65002z M13.46509,25.50653c-0.34229,0.04041-0.69116,0.0246-1.03717,0.0321    c-0.159,0.00336-0.31812,0.00055-0.48621,0.00055c0-1.30347,0-2.59259,0-3.88568c0.01508-0.00372,0.02887-0.01019,0.04266-0.01007    c0.4306,0.00305,0.86273-0.01422,1.29163,0.01508c0.68732,0.047,1.26361,0.32642,1.61322,0.94513    C15.5777,23.82202,14.82642,25.34521,13.46509,25.50653z" style="fill:#303030;"/></g></g></svg>